ply
format ascii 1.0
comment Created by Blender 2.77 (sub 0) - www.blender.org, source file: 'rail.blend'
element vertex 25
property float x
property float y
property float z
property uchar red
property uchar green
property uchar blue
element face 15
property list uchar uint vertex_indices
end_header
0.000000 -0.000000 0.000000 105 105 105
0.000000 -0.000000 8.000000 105 105 105
1.000000 0.200000 8.000000 143 143 143
1.000000 0.200000 0.000000 138 138 138
3.000000 0.200000 0.000000 138 138 138
4.000000 -0.000000 0.000000 105 105 105
1.050000 0.200000 8.000000 255 255 255
1.100000 0.200000 8.000000 255 255 255
1.100000 0.350000 8.000000 255 255 255
1.050000 0.350000 8.000000 255 255 255
3.000000 0.200000 8.000000 139 139 139
1.100000 0.350000 0.000000 255 255 255
1.100000 0.200000 0.000000 255 255 255
1.050000 0.200000 0.000000 255 255 255
1.050000 0.350000 0.000000 255 255 255
4.000000 -0.000000 8.000000 105 105 105
2.950000 0.200000 8.000000 255 255 255
2.950000 0.350000 8.000000 255 255 255
2.900000 0.350000 8.000000 255 255 255
2.900000 0.200000 8.000000 255 255 255
2.900000 0.350000 0.000000 255 255 255
2.900000 0.200000 0.000000 255 255 255
2.950000 0.200000 0.000000 255 255 255
2.950000 0.350000 0.000000 255 255 255
4.000000 -0.000000 8.000000 138 138 138
4 0 1 2 3
4 0 3 4 5
4 6 7 8 9
4 3 2 10 4
4 11 8 7 12
4 13 14 11 12
4 9 8 11 14
4 14 13 6 9
4 10 15 5 4
4 16 17 18 19
4 20 21 19 18
4 22 21 20 23
4 17 23 20 18
4 23 17 16 22
4 1 24 10 2
